<?xml version="1.0" standalone="no"?>
<!DOCTYPE svg PUBLIC "-//W3C//DTD SVG 20010904//EN"
 "http://www.w3.org/TR/2001/REC-SVG-20010904/DTD/svg10.dtd">
<svg version="1.0" xmlns="http://www.w3.org/2000/svg"
 width="972.000000pt" height="972.000000pt" viewBox="0 0 972.000000 972.000000"
 preserveAspectRatio="xMidYMid meet">
<metadata>
Created by potrace 1.14, written by Peter Selinger 2001-2017
</metadata>
<g transform="translate(0.000000,972.000000) scale(0.100000,-0.100000)"
fill="#000000" stroke="none">
<path d="M4608 9495 c-1 -1 -50 -6 -108 -10 -170 -12 -183 -13 -235 -20 -27
-3 -66 -8 -85 -10 -19 -2 -36 -4 -37 -5 -2 -2 -11 -3 -20 -4 -10 -1 -43 -6
-73 -11 -30 -4 -64 -9 -75 -11 -11 -1 -20 -3 -20 -4 0 -1 -11 -3 -25 -6 -14
-2 -47 -9 -75 -14 -27 -6 -66 -13 -85 -16 -19 -3 -38 -8 -43 -11 -4 -2 -20 -7
-35 -9 -15 -3 -70 -16 -122 -30 -321 -85 -639 -204 -932 -350 -38 -18 -68 -30
-68 -26 0 4 -4 2 -8 -3 -4 -6 -36 -26 -72 -44 -100 -53 -105 -55 -112 -66 -4
-5 -8 -6 -8 -2 0 4 -17 -4 -37 -18 -21 -14 -41 -25 -46 -25 -4 0 -13 -5 -20
-10 -7 -6 -57 -39 -112 -73 -55 -34 -104 -65 -110 -69 -5 -5 -72 -53 -148
-108 -76 -55 -144 -106 -151 -113 -7 -6 -28 -23 -46 -37 -18 -14 -46 -36 -61
-50 -16 -14 -57 -50 -91 -80 -148 -131 -367 -359 -508 -530 -34 -41 -70 -84
-79 -96 -10 -11 -26 -35 -37 -52 -10 -18 -21 -32 -24 -32 -3 0 -16 -18 -30
-40 -14 -22 -28 -40 -32 -40 -5 0 -8 -4 -8 -10 0 -5 -22 -41 -50 -80 -27 -38
-48 -70 -45 -70 3 0 -3 -10 -15 -22 -11 -12 -20 -26 -20 -31 0 -4 -11 -23 -24
-40 -13 -18 -36 -54 -51 -82 -14 -27 -36 -66 -47 -85 -70 -119 -207 -407 -265
-559 -51 -136 -144 -414 -158 -476 -2 -11 -14 -58 -25 -105 -37 -150 -56 -244
-65 -317 -2 -18 -6 -40 -9 -50 -6 -23 -14 -73 -22 -149 -3 -32 -8 -72 -10 -89
-23 -181 -26 -895 -4 -895 3 0 7 -19 8 -42 4 -70 19 -177 33 -248 5 -25 11
-58 13 -75 2 -16 13 -73 25 -125 12 -52 24 -102 26 -110 1 -8 8 -35 15 -60 7
-25 13 -49 14 -55 7 -31 33 -116 72 -235 42 -127 54 -161 75 -202 5 -10 9 -22
9 -27 0 -4 10 -30 22 -57 12 -27 23 -51 23 -54 9 -33 177 -374 187 -378 4 -2
8 -9 8 -16 0 -8 9 -25 20 -39 12 -15 22 -30 22 -34 3 -16 49 -93 120 -201 15
-24 28 -45 28 -48 0 -3 18 -29 40 -59 22 -30 40 -57 40 -60 0 -3 8 -14 18 -24
9 -10 28 -35 42 -56 34 -50 188 -244 252 -319 71 -82 359 -370 433 -433 98
-85 102 -88 210 -173 126 -100 339 -250 354 -250 5 0 11 -4 13 -8 3 -7 72 -52
148 -95 19 -11 49 -28 65 -38 71 -43 261 -141 395 -203 145 -67 154 -71 245
-106 44 -17 89 -35 100 -40 31 -13 166 -61 200 -70 17 -4 50 -14 75 -23 70
-23 233 -70 255 -73 11 -1 20 -3 20 -4 0 -1 7 -3 15 -5 8 -2 46 -10 85 -19
133 -32 299 -63 425 -80 25 -4 59 -9 75 -12 273 -44 837 -53 1200 -19 37 3
153 17 180 21 66 9 256 41 295 49 14 3 41 8 60 11 19 3 38 8 41 10 4 2 24 6
45 10 20 3 48 10 61 15 13 5 23 6 23 4 0 -2 11 0 25 5 14 5 36 12 48 14 12 3
69 19 127 36 58 17 110 32 115 33 42 12 153 50 167 58 10 5 22 9 27 9 5 0 22
5 38 12 15 6 30 12 33 13 3 1 14 5 25 10 11 4 58 24 105 43 47 19 114 47 150
64 36 16 95 44 133 60 37 17 67 35 67 39 0 4 12 10 28 14 15 3 47 19 73 34 25
16 55 32 67 35 12 4 22 12 22 17 0 5 4 9 10 9 12 0 163 90 248 147 35 24 67
43 72 43 4 0 10 3 12 8 2 4 35 30 73 57 39 27 72 53 73 57 2 4 8 8 13 8 5 0
17 6 26 14 10 8 60 49 112 91 315 255 588 529 804 809 43 56 84 108 90 116 7
8 45 65 84 125 40 61 77 115 83 122 5 7 10 14 10 16 0 3 24 44 53 93 74 123
254 494 240 494 -3 0 -1 6 4 13 11 13 33 77 32 91 0 5 3 12 8 15 10 7 81 222
117 356 31 117 67 283 91 421 4 22 8 53 10 69 2 17 7 50 10 75 9 59 12 90 20
180 3 41 9 93 11 115 7 51 12 734 7 801 l-5 51 -94 -1 c-52 -1 -94 -4 -94 -8
0 -4 -6 -5 -14 -2 -12 4 -14 -25 -16 -178 0 -101 -3 -210 -5 -243 -10 -163
-15 -233 -19 -265 -3 -19 -8 -56 -11 -82 -8 -77 -17 -142 -21 -163 -2 -11 -9
-47 -14 -80 -40 -240 -139 -611 -207 -775 -3 -8 -7 -20 -8 -25 -2 -9 -11 -31
-57 -145 -6 -14 -17 -37 -25 -52 -7 -15 -14 -30 -14 -33 0 -20 -202 -429 -219
-445 -3 -3 -19 -27 -35 -55 -53 -92 -206 -320 -250 -372 -5 -7 -14 -18 -20
-25 -76 -98 -152 -188 -157 -188 -5 0 -8 -4 -8 -10 0 -11 -69 -86 -191 -209
-172 -173 -336 -314 -514 -442 -60 -44 -118 -86 -128 -94 -9 -8 -22 -15 -27
-15 -6 0 -10 -3 -10 -8 0 -4 -9 -12 -19 -17 -11 -6 -88 -51 -170 -102 -172
-104 -455 -246 -644 -323 -70 -28 -133 -53 -140 -54 -6 -2 -23 -8 -37 -13 -41
-17 -148 -54 -167 -58 -10 -2 -45 -12 -78 -23 -50 -16 -224 -64 -284 -77 -32
-8 -157 -34 -181 -39 -14 -2 -48 -9 -77 -15 -29 -6 -74 -13 -100 -17 -26 -3
-57 -8 -68 -10 -11 -2 -45 -7 -75 -10 -30 -4 -68 -8 -85 -10 -283 -36 -785
-36 -1070 0 -22 2 -62 7 -90 11 -49 5 -78 9 -140 20 -16 3 -46 8 -65 11 -30 5
-117 22 -200 40 -61 12 -300 75 -326 84 -16 6 -31 12 -34 12 -28 3 -324 106
-395 137 -11 5 -36 16 -55 24 -220 93 -477 225 -675 347 -79 48 -274 179 -291
195 -6 5 -23 19 -39 30 -15 11 -39 30 -53 42 -14 13 -28 23 -31 23 -3 0 -22
15 -43 33 -20 17 -57 50 -83 72 -155 131 -295 269 -465 461 -82 92 -280 349
-280 363 0 5 -4 11 -8 13 -11 4 -72 94 -72 106 0 6 -4 12 -8 14 -26 10 -220
362 -309 558 -59 132 -149 359 -151 380 0 3 -7 23 -15 45 -33 86 -104 343
-121 435 -2 14 -9 47 -16 74 -6 27 -9 55 -6 63 3 7 2 13 -3 13 -5 0 -12 28
-16 63 -5 34 -9 64 -10 67 0 3 -5 37 -9 75 -5 39 -10 79 -12 90 -15 78 -26
598 -14 665 5 26 4 37 -3 33 -6 -3 -7 -1 -3 5 4 6 9 37 11 69 3 32 7 74 10 93
5 38 17 146 20 170 0 9 4 21 9 28 4 6 5 12 3 12 -6 0 11 94 44 245 11 50 22
99 24 110 3 11 14 52 25 90 12 39 23 77 25 85 2 8 14 47 28 87 14 40 22 74 19
77 -3 4 0 6 6 6 7 0 11 3 10 8 -1 4 4 20 10 35 7 16 12 32 12 37 0 8 47 123
81 197 10 24 19 45 19 47 0 21 186 378 202 388 7 4 10 8 6 8 -11 0 143 250
153 250 5 0 9 5 9 11 0 18 145 219 230 319 8 10 33 39 55 66 63 77 101 118
245 263 173 175 236 231 485 424 93 72 251 177 405 268 147 87 390 213 390
202 0 -4 4 -3 8 3 13 20 385 173 482 199 8 2 51 15 95 30 44 14 89 28 99 30
10 3 33 9 51 15 18 6 42 13 54 15 11 3 30 7 41 10 11 3 28 7 38 9 60 15 242
56 267 60 17 2 30 5 30 6 0 1 9 3 20 4 46 7 112 17 135 21 14 2 45 7 70 10 25
3 56 8 70 10 14 2 54 7 90 10 36 3 85 8 110 10 229 21 611 21 805 0 22 -2 72
-7 110 -10 75 -7 95 -10 163 -20 23 -4 52 -8 65 -10 67 -10 105 -15 127 -20
14 -3 41 -8 60 -11 19 -3 91 -19 160 -35 69 -17 135 -32 146 -34 12 -3 51 -14
85 -24 56 -17 113 -32 129 -35 3 -1 10 -4 16 -8 6 -4 21 -9 35 -12 23 -5 96
-29 129 -43 8 -3 17 -7 20 -7 3 -1 21 -7 40 -15 443 -169 815 -374 1177 -647
70 -54 130 -100 133 -103 3 -3 34 -31 70 -61 159 -136 397 -375 506 -510 16
-19 32 -38 37 -41 16 -12 -6 -35 -75 -79 -38 -25 -76 -51 -84 -58 -8 -7 -14
-11 -14 -7 0 3 -10 -3 -22 -15 -12 -11 -27 -20 -34 -20 -7 0 -14 -4 -16 -8 -1
-5 -67 -51 -145 -104 l-141 -96 -44 51 c-129 151 -357 377 -463 459 -16 12
-35 28 -42 34 -6 6 -56 44 -110 85 -54 41 -101 79 -105 84 -4 6 -8 6 -8 2 0
-5 -7 -2 -15 5 -29 26 -44 38 -49 38 -3 0 -15 8 -26 18 -11 9 -23 15 -27 14
-3 -2 -9 0 -12 6 -5 8 -31 24 -129 83 -83 49 -353 189 -366 189 -2 0 -25 10
-52 22 -27 12 -51 23 -54 23 -3 1 -18 7 -35 14 -116 49 -285 107 -435 149 -8
2 -23 4 -32 5 -10 1 -18 4 -18 8 0 4 -15 9 -32 12 -18 3 -43 7 -54 10 -42 10
-210 46 -244 51 -19 3 -46 8 -60 10 -60 11 -118 18 -160 21 -25 2 -45 4 -45 6
0 2 -10 3 -150 14 -149 12 -680 8 -680 -5 0 -1 -18 -3 -40 -5 -53 -3 -144 -13
-174 -19 -12 -3 -42 -8 -65 -11 -62 -8 -180 -30 -286 -55 -52 -12 -104 -23
-115 -26 -26 -5 -153 -43 -185 -55 -14 -5 -34 -11 -45 -13 -11 -2 -83 -27
-160 -56 -77 -29 -155 -57 -172 -64 -18 -6 -33 -14 -33 -18 0 -4 -16 -10 -35
-14 -19 -3 -35 -10 -35 -15 0 -5 -6 -9 -12 -9 -12 0 -98 -40 -108 -50 -3 -3
-10 -6 -17 -7 -7 -2 -68 -34 -135 -71 -68 -38 -139 -77 -158 -88 -19 -10 -37
-21 -40 -24 -3 -3 -52 -36 -110 -75 -58 -38 -107 -71 -110 -75 -3 -3 -39 -30
-80 -62 -41 -31 -86 -66 -100 -78 -14 -12 -47 -40 -75 -63 -27 -23 -113 -105
-190 -182 -135 -134 -189 -194 -280 -309 -11 -14 -29 -36 -40 -49 -11 -13 -27
-34 -35 -47 -8 -12 -29 -41 -45 -64 -17 -22 -44 -61 -60 -86 -17 -25 -32 -47
-35 -50 -3 -3 -11 -16 -18 -30 -7 -14 -34 -61 -62 -105 -27 -44 -49 -86 -50
-92 0 -7 -5 -13 -11 -13 -5 0 -8 -4 -5 -9 4 -5 3 -11 -1 -13 -11 -4 -91 -171
-142 -293 -23 -55 -46 -109 -51 -120 -22 -49 -90 -258 -90 -276 0 -10 -5 -19
-12 -19 -6 0 -9 -3 -6 -6 4 -3 -4 -44 -17 -91 -22 -79 -28 -88 -83 -141 -78
-74 -105 -133 -105 -227 0 -38 3 -79 6 -90 3 -11 6 -25 6 -31 1 -5 15 -32 33
-60 l31 -49 3 -275 c2 -259 6 -336 18 -420 3 -19 8 -59 12 -89 6 -56 11 -86
14 -86 1 0 3 -13 6 -30 2 -16 11 -64 19 -105 9 -41 18 -86 21 -100 2 -14 7
-32 10 -40 3 -8 8 -26 10 -40 3 -14 7 -32 11 -40 3 -8 8 -24 10 -35 6 -27 9
-37 16 -55 8 -21 51 -154 52 -160 0 -3 20 -54 43 -115 59 -149 181 -395 265
-535 81 -133 246 -370 259 -370 4 0 8 -6 8 -12 0 -7 17 -32 38 -54 20 -23 57
-65 82 -95 84 -101 302 -313 420 -409 30 -25 60 -49 66 -55 6 -5 23 -19 39
-30 15 -11 48 -36 74 -56 68 -52 259 -179 270 -179 5 0 11 -4 13 -8 3 -9 68
-48 133 -80 17 -9 32 -18 35 -22 8 -11 224 -115 232 -112 5 1 8 -2 8 -8 0 -5
4 -10 10 -10 5 0 33 -11 62 -24 63 -29 227 -96 248 -101 8 -3 69 -23 135 -45
115 -39 400 -114 474 -126 37 -5 62 -10 96 -17 11 -3 47 -8 80 -12 32 -4 68
-9 80 -11 11 -2 45 -6 75 -9 30 -3 87 -8 125 -12 150 -15 670 -7 760 11 11 2
52 7 90 11 70 6 71 6 85 -22 56 -107 250 -195 375 -169 17 3 43 8 60 12 48 9
123 54 165 100 61 66 97 147 103 233 1 16 11 28 32 36 16 8 46 20 67 29 20 9
40 16 44 16 37 0 388 167 559 265 91 52 323 201 335 215 3 3 25 21 50 40 51
39 77 60 94 75 21 19 131 110 156 130 31 25 378 372 405 405 11 14 49 61 85
105 35 44 69 83 75 87 5 4 6 8 2 8 -5 0 -2 6 5 14 8 8 37 47 64 87 27 41 51
76 54 79 3 3 25 39 49 80 25 41 57 96 73 123 15 26 28 53 28 61 0 7 7 19 15
26 8 7 15 16 15 21 0 4 13 36 30 71 55 117 144 367 156 438 3 14 7 32 11 40 7
18 6 14 27 115 23 111 24 117 31 172 4 26 9 59 11 73 7 45 18 203 18 282 1 43
5 78 9 78 5 0 5 4 2 10 -3 5 -8 78 -11 162 -4 150 -6 183 -18 283 -3 28 -8 74
-11 104 -8 69 -10 72 -48 65 -29 -6 -68 -11 -105 -13 -10 -1 -11 -24 -6 -104
15 -228 6 -505 -21 -677 -4 -25 -9 -56 -10 -70 -5 -39 -56 -283 -61 -292 -3
-5 -7 -20 -10 -34 -4 -24 -77 -250 -91 -284 -3 -8 -5 -18 -5 -22 1 -5 -3 -8
-10 -8 -6 0 -9 -3 -5 -6 5 -5 -8 -36 -72 -176 -11 -26 -21 -51 -21 -57 0 -5
-3 -11 -8 -13 -4 -1 -24 -37 -45 -78 -20 -41 -46 -88 -57 -105 -11 -16 -23
-37 -27 -45 -15 -29 -67 -115 -73 -120 -3 -3 -32 -43 -65 -90 -32 -47 -61 -87
-64 -90 -4 -3 -22 -25 -41 -50 -19 -25 -38 -49 -43 -55 -62 -81 -374 -395
-391 -395 -3 0 -14 -8 -25 -18 -51 -48 -83 -73 -156 -127 -44 -32 -83 -64 -87
-69 -4 -6 -8 -7 -8 -3 0 5 -15 -3 -32 -17 -18 -15 -37 -30 -43 -34 -72 -56
-318 -203 -425 -254 -25 -12 -48 -27 -52 -32 -4 -6 -8 -8 -8 -4 0 4 -46 -15
-102 -42 -57 -26 -165 -71 -241 -99 l-138 -52 -27 19 c-68 49 -125 67 -207 66
-44 0 -89 -3 -100 -5 -84 -20 -184 -99 -224 -176 -22 -44 -28 -46 -146 -58
-33 -4 -71 -8 -85 -11 -101 -16 -523 -23 -640 -10 -30 3 -86 8 -125 11 -38 2
-79 6 -91 9 -12 2 -45 7 -74 11 -29 4 -60 8 -69 10 -9 1 -36 6 -61 10 -25 4
-54 9 -65 12 -11 3 -27 6 -35 7 -8 2 -28 6 -45 9 -16 4 -39 9 -50 11 -11 2
-63 16 -115 30 -52 15 -102 28 -110 30 -33 9 -258 85 -292 100 -21 9 -41 17
-45 17 -5 1 -17 6 -28 12 -11 6 -26 12 -33 13 -28 5 -401 196 -465 239 -38 25
-71 45 -74 45 -17 0 -306 214 -417 310 -128 110 -302 284 -386 387 -66 80
-190 242 -190 247 0 4 -6 14 -13 21 -26 30 -37 44 -37 50 0 3 -22 39 -50 80
-27 41 -46 75 -42 75 4 0 3 4 -3 8 -11 8 -25 32 -69 117 -17 33 -34 62 -38 63
-5 2 -8 7 -8 12 0 4 -19 48 -42 97 -23 48 -42 90 -43 93 0 3 -3 10 -6 15 -4 6
-12 28 -19 50 -7 22 -16 45 -20 50 -6 9 -69 184 -75 210 -1 6 -5 17 -8 25 -11
28 -58 208 -62 239 -2 17 -6 34 -9 39 -3 5 -8 24 -11 43 -2 19 -11 77 -20 129
-23 146 -23 148 -31 255 -7 84 -8 289 -4 447 1 22 6 38 13 39 108 6 219 99
244 203 28 117 -25 230 -138 291 l-37 20 25 85 c14 47 26 90 27 95 2 6 6 17 9
25 3 8 18 53 33 100 15 47 37 109 50 138 13 29 23 53 23 55 -1 6 27 71 62 145
21 45 39 84 39 86 0 9 155 282 166 294 7 6 16 21 19 32 3 11 11 20 16 20 5 0
9 4 9 9 0 8 54 93 78 122 6 8 48 61 93 118 45 57 93 118 108 135 34 40 290
295 322 321 14 11 49 40 79 65 96 80 189 150 199 150 5 0 11 4 13 8 14 35 434
277 608 351 30 13 69 29 85 36 97 43 124 53 129 47 3 -3 6 0 6 7 0 7 4 10 8 7
4 -2 21 1 37 9 55 24 346 112 433 130 9 2 37 8 62 14 25 5 59 12 75 15 17 3
39 8 50 10 11 2 40 7 65 10 25 3 54 8 65 10 12 2 48 7 80 11 33 4 71 9 85 11
148 25 684 24 830 -1 14 -2 50 -6 80 -9 66 -7 95 -12 225 -36 28 -5 64 -12 80
-15 30 -5 42 -8 160 -40 33 -9 67 -18 76 -20 26 -5 103 -27 119 -33 8 -3 22
-6 31 -8 9 -2 37 -13 63 -24 26 -11 51 -20 56 -20 4 0 25 -8 46 -17 22 -9 41
-17 44 -18 35 -8 150 -59 305 -136 102 -51 123 -62 210 -113 100 -58 346 -224
365 -246 3 -3 25 -21 50 -40 166 -129 395 -354 554 -547 l27 -32 -48 -32 c-26
-18 -49 -36 -51 -41 -2 -4 -8 -8 -13 -8 -9 0 -275 -176 -297 -197 -7 -7 -20
-13 -28 -13 -8 0 -14 -4 -14 -8 0 -5 -16 -17 -35 -28 -19 -10 -35 -22 -35 -26
0 -5 -4 -8 -9 -8 -5 0 -45 -25 -89 -55 -44 -30 -86 -53 -94 -50 -7 3 -27 22
-43 41 -53 64 -66 78 -125 139 -103 106 -226 213 -345 300 -22 16 -42 31 -45
34 -3 4 -14 11 -25 18 -11 7 -72 44 -135 82 -162 98 -363 193 -530 250 -52 18
-102 36 -110 39 -8 3 -17 6 -20 7 -3 1 -24 5 -47 10 -24 4 -43 11 -43 14 0 4
-8 7 -17 7 -10 1 -29 4 -43 7 -14 3 -54 12 -90 20 -63 13 -65 14 -67 48 -7
106 -18 167 -38 215 -8 19 -12 34 -9 34 2 0 -7 18 -21 40 -14 22 -25 44 -25
50 0 5 -4 10 -9 10 -5 0 -12 8 -15 18 -5 15 -61 75 -106 114 -116 100 -290
162 -455 162 -51 0 -154 -12 -166 -19 -5 -4 -19 -8 -31 -10 -13 -3 -61 -23
-108 -46 -115 -57 -230 -171 -282 -279 -59 -123 -73 -181 -70 -305 l2 -80
-108 -37 c-161 -55 -192 -67 -250 -93 -29 -14 -57 -25 -62 -25 -6 0 -10 -5
-10 -10 0 -6 -3 -9 -7 -8 -25 5 -258 -126 -392 -221 -51 -36 -101 -70 -110
-76 -9 -5 -18 -13 -21 -16 -3 -3 -32 -28 -65 -55 -118 -94 -262 -238 -371
-369 -136 -164 -306 -447 -397 -661 -48 -113 -127 -380 -143 -484 -3 -19 -8
-38 -10 -41 -1 -3 -6 -34 -10 -70 -3 -35 -8 -67 -10 -71 -15 -25 -22 -359 -10
-498 12 -151 18 -190 53 -350 32 -143 29 -132 36 -150 3 -8 15 -46 27 -85 11
-38 31 -95 43 -125 12 -30 22 -57 22 -60 0 -3 17 -40 38 -83 20 -44 37 -84 37
-90 0 -7 -16 -23 -35 -37 -43 -32 -111 -134 -138 -208 -21 -59 -30 -210 -15
-281 23 -116 142 -262 260 -320 58 -29 82 -37 163 -56 29 -7 155 -7 189 0 51
10 150 46 182 66 35 21 25 25 106 -47 15 -13 30 -24 33 -24 4 0 33 -23 69 -55
26 -24 219 -146 301 -191 133 -74 233 -121 360 -169 39 -15 79 -31 90 -35 11
-5 54 -18 95 -30 41 -12 86 -26 100 -31 14 -5 39 -12 55 -15 17 -2 57 -11 90
-19 71 -17 233 -46 290 -51 22 -1 76 -6 120 -10 94 -8 366 -12 379 -5 5 2 41
6 80 7 39 2 87 6 106 8 19 3 56 8 82 11 59 8 296 57 338 70 10 3 27 8 37 10
35 7 218 68 238 78 11 6 26 12 32 13 40 7 317 144 443 219 122 73 329 220 396
280 6 6 42 37 80 70 74 65 284 271 284 280 0 3 8 13 18 23 93 96 228 313 303
487 39 91 101 303 93 317 -3 4 -1 8 4 8 5 0 9 6 9 13 0 15 11 93 18 127 13 69
19 163 18 335 0 167 -4 237 -17 335 -2 14 -7 54 -11 90 -4 36 -9 68 -11 72 -4
6 -23 5 -107 -7 -39 -6 -61 -21 -52 -35 9 -15 19 -164 19 -290 0 -166 -11
-285 -39 -410 -3 -14 -8 -36 -11 -50 -7 -36 -76 -253 -84 -265 -4 -5 -13 -26
-20 -45 -52 -139 -213 -407 -305 -506 -5 -6 -27 -32 -49 -57 -41 -50 -175
-187 -181 -187 -2 0 -15 -10 -27 -23 -63 -59 -279 -219 -318 -235 -8 -3 -17
-8 -20 -12 -10 -12 -169 -110 -179 -110 -6 0 -11 -3 -11 -7 0 -5 -36 -26 -80
-48 -44 -22 -102 -51 -128 -64 -26 -13 -51 -24 -57 -26 -12 -3 -37 -12 -92
-36 -24 -10 -43 -15 -43 -12 0 3 -6 1 -12 -5 -22 -17 -262 -84 -383 -107 -66
-12 -101 -18 -125 -20 -14 -2 -25 -4 -25 -5 0 -2 -38 -5 -175 -16 -166 -13
-450 -7 -560 11 -14 2 -38 7 -55 9 -16 3 -41 8 -55 11 -14 3 -38 8 -55 10 -55
10 -249 66 -350 102 -55 20 -115 41 -132 47 -18 6 -33 14 -33 18 0 5 -8 8 -18
8 -10 0 -29 8 -42 17 -14 10 -27 17 -30 16 -7 -4 -134 61 -138 70 -2 4 -8 5
-13 1 -5 -3 -9 0 -9 5 0 6 -5 11 -10 11 -14 0 -204 120 -208 131 -2 5 -8 9
-13 9 -11 0 -74 47 -131 99 -24 21 -35 38 -29 45 13 18 41 108 36 117 -3 4 -1
10 4 13 9 6 8 165 -2 201 -3 11 -8 33 -12 49 -10 36 -50 111 -83 156 -68 90
-170 162 -282 200 -82 28 -118 33 -207 32 l-71 -1 -46 105 c-25 57 -46 109
-46 114 0 5 -5 21 -12 37 -6 15 -12 30 -13 33 -1 3 -4 12 -7 20 -6 15 -26 87
-34 119 -2 9 -9 36 -15 61 -6 25 -12 56 -14 70 -2 14 -6 41 -10 60 -39 195
-39 532 1 755 15 85 16 94 33 168 17 73 95 305 125 369 14 31 31 67 36 80 21
48 111 207 141 250 11 14 19 29 19 32 0 3 6 14 14 23 8 10 39 50 68 90 96 129
228 271 343 368 26 22 53 45 59 50 72 67 310 224 432 285 49 25 91 48 94 51 3
4 16 10 30 14 14 4 48 17 75 30 28 13 95 39 151 58 l100 35 25 -36 c58 -86
157 -169 262 -221 119 -59 216 -79 357 -76 63 2 125 6 138 9 12 3 32 8 43 11
43 9 95 28 141 51 27 14 51 24 54 23 4 0 10 3 13 8 3 5 29 25 56 45 64 46 137
127 175 193 l30 52 42 -8 c82 -17 93 -20 163 -40 359 -105 659 -262 955 -504
45 -36 251 -240 260 -257 8 -13 -13 -31 -123 -104 -72 -49 -133 -92 -135 -96
-2 -5 -7 -8 -12 -8 -4 0 -47 -27 -96 -60 l-87 -60 -86 85 c-47 46 -104 98
-126 116 -66 52 -184 139 -190 139 -2 0 -29 16 -60 35 -50 32 -150 82 -265
132 -40 18 -192 68 -237 78 -123 29 -198 44 -248 50 -33 3 -78 9 -100 11 -94
13 -366 6 -448 -11 -16 -3 -45 -7 -65 -10 -21 -2 -46 -6 -57 -8 -11 -3 -50
-12 -86 -21 -115 -27 -270 -84 -404 -150 -129 -64 -345 -200 -345 -217 0 -5
-6 -9 -14 -9 -21 0 -267 -246 -325 -325 -28 -38 -55 -75 -60 -81 -39 -48 -128
-210 -174 -314 -48 -108 -108 -325 -122 -435 -23 -185 -23 -405 -1 -522 3 -11
8 -43 12 -70 9 -57 7 -47 23 -103 7 -25 15 -53 17 -63 8 -42 79 -219 122 -302
126 -247 312 -467 547 -646 71 -54 220 -149 235 -149 5 0 10 -4 10 -10 0 -5 3
-9 8 -8 4 1 30 -9 57 -23 28 -14 93 -43 145 -63 52 -21 103 -42 112 -47 10 -5
28 -9 41 -9 13 0 27 -4 33 -9 5 -6 20 -12 34 -15 14 -2 48 -10 75 -16 63 -15
71 -16 120 -24 159 -23 190 -26 330 -25 122 0 161 2 250 14 83 11 89 12 120
19 17 3 44 8 60 11 45 7 171 42 195 55 11 6 20 8 20 4 0 -3 7 -1 15 6 8 7 15
10 15 7 0 -23 436 197 460 233 3 4 15 12 26 18 12 6 55 39 95 73 225 187 368
362 475 581 34 68 99 266 109 328 3 19 8 46 10 60 3 14 8 36 10 50 11 53 19
201 20 335 l0 140 -46 1 c-26 1 -51 4 -57 8 -6 3 -13 3 -16 -2 -3 -5 -19 -7
-36 -4 -28 4 -30 2 -31 -29 -2 -54 -6 -100 -14 -154 -4 -27 -8 -59 -10 -70
-16 -142 -96 -411 -146 -495 -5 -8 -15 -28 -22 -45 -58 -128 -204 -301 -357
-425 -30 -25 -56 -48 -58 -52 -2 -5 -10 -8 -18 -8 -8 0 -14 -3 -14 -7 0 -5
-24 -24 -53 -43 -28 -19 -54 -37 -57 -40 -39 -39 -379 -196 -443 -204 -12 -2
-34 -8 -48 -14 -15 -6 -42 -13 -60 -15 -19 -3 -34 -6 -34 -7 0 -3 -90 -17
-173 -27 -76 -9 -292 -9 -367 0 -154 19 -228 35 -349 74 -77 24 -102 33 -181
68 -19 9 -38 16 -42 17 -26 6 -247 142 -279 172 -6 6 -22 18 -35 26 -33 22
-209 197 -250 250 -94 120 -185 283 -234 420 -15 41 -28 83 -30 93 -2 10 -7
27 -10 37 -3 10 -8 29 -11 42 -3 13 -7 32 -9 43 -12 53 -16 75 -23 135 -4 36
-7 119 -7 185 0 133 6 194 30 305 3 14 7 34 9 45 8 41 64 192 99 267 96 204
252 400 442 554 173 140 427 266 650 322 79 20 100 24 200 39 55 9 393 8 440
0 17 -3 50 -8 74 -11 25 -4 63 -11 85 -17 23 -6 50 -12 61 -14 85 -14 338
-118 408 -167 15 -11 27 -17 27 -14 0 20 246 -170 336 -260 l63 -64 -57 -37
c-31 -20 -59 -40 -62 -44 -3 -3 -14 -11 -25 -17 -12 -6 -110 -72 -219 -146
-109 -75 -200 -136 -204 -136 -3 0 -15 -9 -27 -20 -21 -19 -21 -19 -50 7 -143
124 -306 202 -480 231 -49 9 -267 9 -315 0 -117 -20 -250 -74 -357 -145 -54
-36 -213 -188 -213 -204 0 -4 -6 -14 -14 -21 -7 -8 -24 -34 -36 -59 -13 -24
-26 -46 -30 -49 -5 -3 -10 -14 -12 -25 -1 -11 -6 -22 -9 -25 -3 -3 -15 -36
-27 -75 -91 -294 -17 -592 204 -820 126 -130 315 -226 494 -252 25 -4 55 -7
68 -7 12 -1 22 -3 22 -6 0 -17 298 15 331 35 5 4 19 8 31 10 33 7 181 79 200
98 9 9 21 18 28 19 16 4 126 112 166 163 48 60 100 162 123 239 29 95 37 140
46 261 2 28 4 50 5 50 1 0 2 73 4 162 1 90 0 160 -3 157 -3 -3 -7 -10 -7 -15
-1 -5 -2 -10 -4 -11 -1 -2 -3 -10 -5 -18 -2 -8 -6 -25 -9 -37 -3 -13 -8 -32
-11 -44 -2 -11 -7 -29 -10 -39 -3 -10 -8 -27 -10 -37 -2 -10 -14 -52 -25 -93
-11 -41 -23 -83 -25 -93 -2 -10 -7 -27 -10 -37 -3 -10 -7 -27 -9 -37 -8 -39
-69 -183 -78 -183 -5 0 -7 -4 -4 -8 6 -9 -75 -115 -113 -149 -14 -12 -33 -29
-41 -36 -58 -53 -242 -149 -314 -163 -152 -30 -294 -29 -391 2 -27 8 -54 17
-60 18 -24 5 -95 43 -149 79 -205 138 -308 336 -300 582 8 275 220 541 494
619 145 41 324 42 439 1 23 -8 41 -12 41 -9 0 8 124 -58 180 -96 67 -46 110
-91 93 -97 -7 -2 -24 -14 -40 -26 -15 -12 -77 -55 -138 -95 -60 -41 -111 -78
-113 -83 -2 -5 -8 -9 -13 -9 -5 0 -44 -25 -86 -55 -43 -31 -88 -60 -100 -65
-13 -5 -23 -12 -23 -15 0 -13 61 -95 71 -95 5 0 85 51 177 112 92 62 174 117
184 123 9 5 76 51 148 100 73 50 140 95 149 100 9 6 42 28 74 50 31 22 72 48
89 57 17 9 34 21 37 25 5 7 99 72 143 98 56 34 434 291 436 297 2 5 7 8 12 8
8 0 157 99 613 407 108 73 201 133 206 133 5 0 11 3 13 8 4 10 106 82 116 82
4 0 19 11 34 25 15 14 30 25 33 25 3 0 109 70 234 155 126 85 241 157 255 161
14 3 26 10 26 15 0 5 6 9 14 9 8 0 16 3 18 8 3 6 371 256 453 307 18 11 81 53
139 93 59 39 111 72 116 72 4 0 10 3 12 8 2 4 32 27 68 51 36 25 81 58 100 75
19 17 96 72 170 121 74 50 137 93 138 98 2 4 8 7 12 7 11 0 98 58 105 71 4 5
11 7 16 4 22 -14 5 34 -25 69 l-34 40 -69 -44 c-37 -25 -70 -47 -73 -50 -4 -4
-186 -125 -291 -194 l-27 -17 -63 78 c-66 81 -73 88 -161 188 -120 136 -382
389 -518 501 -44 36 -55 46 -75 62 -39 33 -152 117 -232 174 -89 62 -350 228
-359 228 -2 0 -22 11 -43 24 -20 13 -76 43 -122 67 -46 23 -86 45 -89 49 -3 4
-14 9 -25 13 -16 4 -146 62 -310 137 -45 21 -333 125 -375 135 -3 1 -12 4 -20
7 -8 3 -49 15 -90 27 -41 12 -88 26 -105 31 -33 10 -112 30 -135 35 -8 2 -51
11 -95 20 -44 9 -96 20 -115 25 -19 5 -53 11 -75 15 -22 3 -47 7 -55 10 -8 2
-35 6 -60 9 -25 3 -54 8 -66 10 -11 2 -45 7 -75 10 -30 4 -67 8 -84 10 -16 2
-61 7 -100 11 -38 4 -88 9 -110 11 -50 6 -642 14 -647 9z"/>
</g>
</svg>
