<?xml version="1.0" encoding="utf-8"?>
<!-- Generator: Adobe Illustrator 28.1.0, SVG Export Plug-In . SVG Version: 6.00 Build 0)  -->
<svg version="1.1" id="Ebene_1" xmlns="http://www.w3.org/2000/svg" xmlns:xlink="http://www.w3.org/1999/xlink" x="0px" y="0px"
	 viewBox="0 0 1200 1200" style="enable-background:new 0 0 1200 1200;" xml:space="preserve">
<style type="text/css">
	.st0{fill:#FFFFFF;stroke:#214C9C;stroke-width:10;stroke-miterlimit:10;}
	.st1{fill:#214C9C;stroke:#214C9C;stroke-width:10;stroke-miterlimit:10;}
	.st2{fill:#FFFFFF;}
	.st3{font-family:'XenaraRg-Bold';}
	.st4{font-size:138.0794px;}
	.st5{fill:#214D9B;}
</style>
<rect x="200" y="100" class="st0" width="800" height="928.9"/>
<rect x="200" y="848.9" class="st1" width="800" height="180"/>
<text transform="matrix(1.0868 0 0 1 224.1348 986.5632)" class="st2 st3 st4">AutoRadar</text>
<g>
	<path class="st5" d="M420.26,233.15c68.27-48.08,150.65-65.34,228.6-54.39c77.95,10.95,151.52,50.14,202.17,114.92l1.77,2.29
		l29.66-19.92l4.15,5.58L610.1,467.34l-4.16-5.57l34.23-22.99c-7.73-8.75-18.3-14.07-29.44-15.63c-12.03-1.69-24.77,0.98-35.33,8.41
		c-10.55,7.43-16.93,18.22-18.72,29.64c-1.78,11.41,1.04,23.49,8.87,33.51c7.83,10.02,19.21,16.08,31.22,17.77
		c12.02,1.68,24.76-0.98,35.31-8.41c17.4-10.44,20.02-24.97,23.89-39.28c-0.57,18.16-4.23,30.57-20.22,43.96
		c-11.9,8.37-26.28,11.39-39.87,9.48h-0.01c-13.6-1.91-26.43-8.74-35.27-20.03c-8.83-11.29-12.01-24.95-9.99-37.84
		c2.01-12.91,9.22-25.09,21.12-33.47s26.27-11.4,39.89-9.48c12.75,1.78,24.84,7.92,33.58,17.99l46.12-30.98
		c-18.1-22.53-44.02-36.17-71.44-40.02c-27.87-3.92-57.34,2.26-81.78,19.48c-24.43,17.21-39.21,42.18-43.33,68.63
		c-4.13,26.45,2.39,54.42,20.52,77.6c18.13,23.19,44.45,37.21,72.32,41.12c27.87,3.92,57.34-2.26,81.78-19.47
		c38.31-25.06,45.53-55.18,48.11-89.76c0.99,36.12-4.38,66.29-43.83,95.24c-26,18.32-57.4,24.9-87.11,20.73
		c-29.71-4.17-57.75-19.11-77.05-43.79c-19.3-24.68-26.23-54.48-21.84-82.67v-0.01c4.4-28.2,20.13-54.81,46.14-73.12
		c26.02-18.33,57.41-24.91,87.13-20.73v0.01c29.3,4.13,57,18.72,76.27,42.81l41.12-27.62c-26.62-33.97-64.8-55-105.52-61.79
		c-5.14,15.38-20.29,26.52-38.18,26.52c-16.47,0-30.6-9.43-36.76-22.9c-18.96,5.12-37.3,13.51-54.07,25.33
		c-37.2,26.19-59.7,64.23-65.97,104.49v0.01c-4.96,31.82,0.19,65.06,16.17,95.02c2.93-0.9,6.04-1.38,9.28-1.38
		c16.64,0,30.12,12.8,30.12,28.58c0,6.07-1.99,11.69-5.38,16.32c25.59,23.21,57.64,37.51,91.15,42.22l0.02,0.01
		c42.42,5.96,87.29-3.45,124.5-29.65c51.43-31.75,75.99-84.52,67.34-139.6c9.59,60.37-2.59,102.52-63.05,145.09
		c-38.77,27.31-85.56,37.12-129.84,30.89l-0.01-0.01V632c-34.9-4.9-68.25-19.77-94.9-43.85c-5.32,4.46-12.3,7.17-19.95,7.17
		c-16.64,0-30.13-12.8-30.13-28.59c0-10.28,5.71-19.29,14.31-24.33c-16.57-31.19-21.89-65.78-16.73-98.89h0.01
		c6.55-42.02,29.99-81.68,68.77-108.98c17.4-12.26,36.42-20.98,56.1-26.33c-0.68-2.77-1.04-5.66-1.04-8.62
		c0-20.98,17.93-38,40.06-38c22.11,0,40.05,17.02,40.05,38c0,1.64-0.11,3.25-0.32,4.84c42.42,7.15,82.16,29.08,109.85,64.5
		l49.15-33.02l-0.8-1.03c-38.7-49.49-94.86-79.41-154.37-87.77c-59.51-8.37-122.41,4.82-174.55,41.54
		c-47.88,33.73-78.39,81.42-89.87,132.72c6.9,1.18,12.13,6.89,12.13,13.77c0,7.73-6.6,13.99-14.74,13.99c-0.58,0-1.14-0.04-1.7-0.1
		c-4.68,52.27,9.94,106.32,45.47,151.75c38.7,49.49,94.86,79.41,154.37,87.77c24.92,3.51,50.43,3.22,75.5-0.98
		c1.65-7.96,9.03-13.97,17.9-13.97c5.7,0,10.78,2.47,14.12,6.35c23.46-7.28,46.11-18.22,67.03-32.95
		c66.85-44.7,102.28-118.69,94.33-196.65c10.81,79.66-11.04,142.54-90.03,202.14c-21.21,14.93-44.15,26.09-67.93,33.59
		c0.47,1.54,0.73,3.17,0.73,4.84c0,9.57-8.17,17.32-18.25,17.32c-8.79,0-16.13-5.9-17.86-13.76c-25.44,4.13-51.31,4.36-76.6,0.81
		c-61.35-8.61-119.23-39.45-159.1-90.43c-37.06-47.4-52.04-103.91-46.66-158.41c-3.68-2.54-6.07-6.66-6.07-11.31
		c0-6.12,4.14-11.31,9.9-13.22c11.49-53.64,43.09-103.59,93.03-138.77c53.73-37.83,118.54-51.42,179.9-42.8
		c61.35,8.61,119.23,39.45,159.1,90.43l0.9,1.16L846.79,300l-1.67-2.16c-49.46-63.25-121.26-101.5-197.34-112.19
		c-76.08-10.69-156.48,6.17-223.14,53.11c-66.65,46.93-106.95,115.08-118.21,187.27c-11.27,72.19,6.5,148.49,55.96,211.75
		c49.46,63.25,121.26,101.5,197.34,112.19s156.48-6.17,223.13-53.11c85.02-60.64,124.25-155.46,120.52-252.05
		c5.82,100.95-18.69,183.76-116.13,257.66c-68.27,48.08-150.64,65.35-228.59,54.39c-77.95-10.95-151.52-50.13-202.19-114.92
		c-50.65-64.77-68.85-142.96-57.3-216.93C310.7,351.04,351.98,281.22,420.26,233.15z"/>
</g>
</svg>
